<svg id="Group_1707" data-name="Group 1707" xmlns="http://www.w3.org/2000/svg" xmlns:xlink="http://www.w3.org/1999/xlink" width="138.361" height="33.267" viewBox="0 0 138.361 33.267">
  <defs>
    <linearGradient id="linear-gradient" x1="7.506" y1="63.315" x2="7.487" y2="63.279" gradientUnits="objectBoundingBox">
      <stop offset="0" stop-color="#f9d861"/>
      <stop offset="1" stop-color="#f66b1c"/>
    </linearGradient>
    <linearGradient id="linear-gradient-2" x1="5.746" y1="44.789" x2="5.705" y2="44.776" xlink:href="#linear-gradient"/>
    <linearGradient id="linear-gradient-3" x1="8.029" y1="65.114" x2="8.059" y2="65.099" xlink:href="#linear-gradient"/>
    <linearGradient id="linear-gradient-4" x1="20.64" y1="248.537" x2="20.708" y2="248.516" xlink:href="#linear-gradient"/>
  </defs>
  <g id="axlr">
    <g id="Group">
      <path id="a" d="M177.823,61.768v-13.1a5.58,5.58,0,0,0-.4-2.065,6.425,6.425,0,0,0-1.21-1.922,4.859,4.859,0,0,0-2.278-1.423,11.669,11.669,0,0,0-3.559-.475,5.194,5.194,0,0,0-.688.047q-.356.048-.783.142a4.12,4.12,0,0,0-.854.19,5.089,5.089,0,0,0-.855.379,6.164,6.164,0,0,0-1.471.926,10.457,10.457,0,0,0-1.376,1.4,6.024,6.024,0,0,0-1,1.874,9.93,9.93,0,0,0-.475,2.539,9.444,9.444,0,0,0,.522,3.3,5.908,5.908,0,0,0,1.566,2.349,10.669,10.669,0,0,0,2.255,1.447,7.7,7.7,0,0,0,2.444.688h.237a.384.384,0,0,0,.166.048h.641a7.588,7.588,0,0,0,1.068-.072,4.211,4.211,0,0,0,.972-.261c.159-.063.309-.127.451-.19s.292-.126.451-.19a4.974,4.974,0,0,1,.427-.284,2.228,2.228,0,0,0,.427-.332,2.365,2.365,0,0,0,.45-.356,5.571,5.571,0,0,1,.451-.4q.237-.237.475-.451t.475-.45V60.3a.525.525,0,0,1-.072.119l-.024.024v.048a11.162,11.162,0,0,1-1.186.688,11.565,11.565,0,0,1-1.281.546,10.91,10.91,0,0,1-1.614.309,17.82,17.82,0,0,1-2.183.118h-.617a10.034,10.034,0,0,1-7.5-3.179,10.954,10.954,0,0,1-2.349-3.82,14.2,14.2,0,0,1-.783-4.864,12.551,12.551,0,0,1,.76-4.413,11.821,11.821,0,0,1,2.278-3.749,9.449,9.449,0,0,1,3.75-2.563,14.4,14.4,0,0,1,5.172-.854,15.125,15.125,0,0,1,4.983.759,9.2,9.2,0,0,1,3.654,2.278,10.482,10.482,0,0,1,2.255,3.2,8.631,8.631,0,0,1,.735,3.488V61.768Z" transform="translate(-158.745 -29.58)" fill="url(#linear-gradient)"/>
      <path id="lr" d="M235.748,29.506l4.461-4.315V58.458h-4.461Zm10.38,6.174h4.129v2.23a.467.467,0,0,0,.166-.142,2.4,2.4,0,0,1,.213-.238,1.881,1.881,0,0,1,.238-.284l.284-.285a7.28,7.28,0,0,1,.831-.712,6.115,6.115,0,0,1,1.068-.617,5.822,5.822,0,0,1,1.282-.45,6.671,6.671,0,0,1,1.519-.166l1.519-.1v4.128h-1.139a8.4,8.4,0,0,0-2.278.712,5.609,5.609,0,0,0-1.614,1.186,7.57,7.57,0,0,0-1.02,1.495,9.919,9.919,0,0,0-.925,2.776,6.618,6.618,0,0,0-.1,1.091q-.048.57-.047,1V58.458h-4.129Z" transform="translate(-183.753 -25.191)" fill="url(#linear-gradient-2)"/>
      <path id="x" d="M200.013,43.881v-3.8a16.51,16.51,0,0,1,2.681.4,10.736,10.736,0,0,1,2.492.925,7.511,7.511,0,0,1,2.159,1.614,10.647,10.647,0,0,1,1.637,2.373,8.662,8.662,0,0,1,.878-1.613,5.762,5.762,0,0,1,1.162-1.234,9.374,9.374,0,0,1,1.377-.9,14.238,14.238,0,0,1,1.423-.664q.664-.237,1.282-.4a6.728,6.728,0,0,1,1.234-.214q.569-.094,1.068-.142t.926-.047v3.607a11.755,11.755,0,0,0-2.658.759,9.388,9.388,0,0,0-2.326,1.423,5.787,5.787,0,0,0-1.59,2.255,8.394,8.394,0,0,0-.546,3.156,9.519,9.519,0,0,0,.284,2.444,5.817,5.817,0,0,0,.854,1.874A7.518,7.518,0,0,0,213.586,57a8.38,8.38,0,0,0,1.376.925,6.743,6.743,0,0,0,1,.451,7.091,7.091,0,0,0,.949.261c.317.063.594.111.831.142a4.633,4.633,0,0,0,.594.048v4.034a15.057,15.057,0,0,1-2.658-.214,7.865,7.865,0,0,1-2.136-.688q-.949-.522-1.708-1.044a7.88,7.88,0,0,1-1.329-1.139,1.915,1.915,0,0,1-.237-.284,1.885,1.885,0,0,0-.237-.285,1.554,1.554,0,0,1-.19-.238l-.19-.284a5.668,5.668,0,0,1-.356-.5c-.111-.174-.213-.324-.309-.451a10.288,10.288,0,0,1-1.637,2.421,6.83,6.83,0,0,1-2.159,1.566,9.351,9.351,0,0,1-2.492.878,13.621,13.621,0,0,1-2.681.261V58.735a5.343,5.343,0,0,0,2.468-.379,6.292,6.292,0,0,0,2.041-1.376,10.027,10.027,0,0,0,1.542-1.946,7.888,7.888,0,0,0,.878-2.135,3.27,3.27,0,0,0,.072-.38,3.122,3.122,0,0,1,.071-.379v-.19a.426.426,0,0,1,.047-.19V51.38a4.641,4.641,0,0,0-.024-.475,4.76,4.76,0,0,0-.071-.475c-.032-.158-.055-.317-.072-.475a1.753,1.753,0,0,0-.118-.475,6.716,6.716,0,0,0-.854-1.8,9.683,9.683,0,0,0-1.424-1.661,7.748,7.748,0,0,0-1.993-1.353A9.511,9.511,0,0,0,200.013,43.881Z" transform="translate(-172.147 -30.028)" fill="url(#linear-gradient-3)"/>
    </g>
    <path id="Triangle-Copy" d="M212.507,37.363l4.423-4.187-5.119-1.863Z" transform="translate(-175.979 -27.179)" fill="url(#linear-gradient-4)"/>
  </g>
  <path id="data" d="M282.05,42.285h2.889V56.154a.088.088,0,0,0,.03.061v.213a5.442,5.442,0,0,1-.046.669q-.046.365-.136.791c-.061.264-.132.542-.213.837a6.807,6.807,0,0,1-.3.867,7.567,7.567,0,0,1-.928,1.551,10.022,10.022,0,0,1-1.323,1.4,4.836,4.836,0,0,1-1.795.989,7.936,7.936,0,0,1-2.342.319h-.365a10.876,10.876,0,0,1-3.163-.578,5.349,5.349,0,0,1-2.19-1.429,8.092,8.092,0,0,1-1.338-1.977,7.343,7.343,0,0,1-.639-2.159l-.061-.3a1.545,1.545,0,0,1-.03-.3V56.063a7.869,7.869,0,0,1,.334-2.571,5.679,5.679,0,0,1,1.1-1.992,8.444,8.444,0,0,1,1.551-1.429,6.984,6.984,0,0,1,1.673-.882c.163-.061.329-.117.5-.167a3.114,3.114,0,0,1,.533-.107,2.725,2.725,0,0,1,.5-.076q.258-.015.5-.016a16.226,16.226,0,0,1,1.688.076,5.643,5.643,0,0,1,1.171.228,5.182,5.182,0,0,1,.822.288,4.7,4.7,0,0,1,.638.35V52.6a.272.272,0,0,1-.136-.046.843.843,0,0,0-.167-.076.353.353,0,0,0-.091-.061.353.353,0,0,1-.091-.061.188.188,0,0,1-.107-.03,1,1,0,0,0-.107-.061,5.809,5.809,0,0,0-.7-.289q-.4-.137-.851-.259a4.952,4.952,0,0,0-.912-.213,6.908,6.908,0,0,0-.912-.061h-.365a.088.088,0,0,1-.061.03h-.061a3.77,3.77,0,0,0-1.384.456,5.778,5.778,0,0,0-1.262.973,4.3,4.3,0,0,0-.9,1.445,5.3,5.3,0,0,0-.319,1.9v.182a.088.088,0,0,0,.03.061v.244a7.318,7.318,0,0,0,.411,1.779,3.79,3.79,0,0,0,.745,1.232,4.768,4.768,0,0,0,.943.791,3.93,3.93,0,0,0,1.034.456,4.1,4.1,0,0,0,.5.152,4.783,4.783,0,0,0,.5.091,3.812,3.812,0,0,0,.471.03h.442a4.1,4.1,0,0,0,1.992-.456,3.216,3.216,0,0,0,1.323-1.4,7.836,7.836,0,0,0,.73-2.007,10.9,10.9,0,0,0,.244-2.372ZM300.8,63.363V54.968a3.559,3.559,0,0,0-.259-1.323,4.121,4.121,0,0,0-.775-1.232,3.117,3.117,0,0,0-1.46-.912,7.5,7.5,0,0,0-2.282-.3,3.348,3.348,0,0,0-.441.03q-.228.03-.5.091a2.668,2.668,0,0,0-.548.122,3.259,3.259,0,0,0-.548.243,3.945,3.945,0,0,0-.943.594,6.737,6.737,0,0,0-.882.9,3.849,3.849,0,0,0-.639,1.2,6.394,6.394,0,0,0-.3,1.627,6.05,6.05,0,0,0,.335,2.114,3.79,3.79,0,0,0,1,1.506A6.864,6.864,0,0,0,294,60.55a4.953,4.953,0,0,0,1.567.441h.152a.246.246,0,0,0,.107.03h.411a4.844,4.844,0,0,0,.684-.046,2.675,2.675,0,0,0,.624-.167c.1-.041.2-.081.289-.122s.187-.081.288-.122q.123-.091.274-.182a1.389,1.389,0,0,0,.273-.213,1.5,1.5,0,0,0,.289-.228,3.507,3.507,0,0,1,.289-.259q.152-.152.3-.289t.3-.289V62.42a.342.342,0,0,1-.046.076l-.015.016v.03a7.072,7.072,0,0,1-.76.441,7.456,7.456,0,0,1-.821.35,6.982,6.982,0,0,1-1.034.2,11.418,11.418,0,0,1-1.4.076h-.4a6.429,6.429,0,0,1-4.806-2.038,7.011,7.011,0,0,1-1.506-2.448,9.091,9.091,0,0,1-.5-3.118,8.058,8.058,0,0,1,.486-2.829,7.59,7.59,0,0,1,1.46-2.4,6.058,6.058,0,0,1,2.4-1.642,9.23,9.23,0,0,1,3.315-.548,9.7,9.7,0,0,1,3.193.486,5.9,5.9,0,0,1,2.342,1.461,6.721,6.721,0,0,1,1.444,2.053,5.526,5.526,0,0,1,.471,2.236v8.547Zm7.006-4.243V45.174h2.859v3.589H316.2v2.616H310.66V58.8a4.29,4.29,0,0,0,.061.76,3.327,3.327,0,0,0,.182.639.8.8,0,0,0,.533.441,3.753,3.753,0,0,0,1.141.136l3.376-.061v2.646H312.2c-.01,0-.026.01-.046.03h-.213a4.825,4.825,0,0,1-1.795-.3,2.891,2.891,0,0,1-1.247-.943,5,5,0,0,1-.745-1.369,5.885,5.885,0,0,1-.319-1.521A.3.3,0,0,1,307.8,59.119Zm22.578,4.243V54.968a3.571,3.571,0,0,0-.259-1.323,4.11,4.11,0,0,0-.776-1.232,3.114,3.114,0,0,0-1.46-.912,7.494,7.494,0,0,0-2.281-.3,3.339,3.339,0,0,0-.441.03q-.228.03-.5.091a2.65,2.65,0,0,0-.548.122,3.238,3.238,0,0,0-.548.243,3.932,3.932,0,0,0-.943.594,6.744,6.744,0,0,0-.883.9,3.862,3.862,0,0,0-.638,1.2A6.336,6.336,0,0,0,320.8,56a6.036,6.036,0,0,0,.335,2.114,3.783,3.783,0,0,0,1,1.506,6.863,6.863,0,0,0,1.445.928,4.949,4.949,0,0,0,1.566.441h.153a.243.243,0,0,0,.106.03h.411a4.847,4.847,0,0,0,.685-.046,2.671,2.671,0,0,0,.623-.167c.1-.041.2-.081.289-.122s.188-.081.289-.122a3.2,3.2,0,0,1,.273-.182,1.375,1.375,0,0,0,.274-.213,1.5,1.5,0,0,0,.289-.228,3.507,3.507,0,0,1,.289-.259q.152-.152.3-.289t.3-.289V62.42a.342.342,0,0,1-.046.076l-.016.016v.03a7.007,7.007,0,0,1-.76.441,7.353,7.353,0,0,1-.821.35,6.973,6.973,0,0,1-1.034.2,11.427,11.427,0,0,1-1.4.076h-.4a6.432,6.432,0,0,1-4.806-2.038,7.009,7.009,0,0,1-1.505-2.448,9.09,9.09,0,0,1-.5-3.118,8.058,8.058,0,0,1,.487-2.829,7.566,7.566,0,0,1,1.46-2.4,6.053,6.053,0,0,1,2.4-1.642,9.229,9.229,0,0,1,3.315-.548,9.7,9.7,0,0,1,3.194.486,5.9,5.9,0,0,1,2.342,1.461A6.735,6.735,0,0,1,332.8,52.58a5.537,5.537,0,0,1,.471,2.236v8.547Z" transform="translate(-194.907 -30.742)" fill="#292533"/>
</svg>
